# xmcd
#
# Track frame offsets:
#	150
#	15015
#	30954
#	48794
#	64727
#	80865
#	95062
#	111518
#	123978
#	143292
#	158641
#	173390
#
# Disc length: 2504 seconds
#
# Revision: 1
# Processed by: cddbd v1.5.2PL0 Copyright (c) Steve Scherf et al.
# Submitted via: audiograbber 1.83.01
#
DISCID=8409c60c
DTITLE=Daryle Singletary - There's Still A Little Country Left
DYEAR=2015
DGENRE=Country
TTITLE0=Get Out Of My Country
TTITLE1=Say Hello To Heaven
TTITLE2=Sunday Mornin' Kind Of Town
TTITLE3=Spilled Whiskey
TTITLE4=Like Family
TTITLE5=So Much Different Than Before
TTITLE6=Enough To Lie To Me
TTITLE7=Wanna Be That Feeling
TTITLE8=Too Late To Save The World
TTITLE9=There's Still A Little Country Left
TTITLE10=America The Beautiful
TTITLE11=I'm The Only Hell My Mama Ever Raised
EXTD=
EXTT0=
EXTT1=
EXTT2=
EXTT3=
EXTT4=
EXTT5=
EXTT6=
EXTT7=
EXTT8=
EXTT9=
EXTT10=
EXTT11=
PLAYORDER=
